# xmcd CD database file
#
# Track frame offsets:
#	150
#	12348
#	31421
#	43890
#	61778
#	75777
#	94357
#	112476
#	127061
#	142326
#	158980
#	175875
#	194169
#	212764
#	231949
#	252923
#	266009
#	287780
#	302318
#	323776
#
# Disc length: 4476 seconds
#
# Revision: 0
# Processed by: cddbd v1.5PL3 Copyright (c) Steve Scherf et al.
# Submitted via: CDex 1.40Release
#
DISCID=2f117a14
DTITLE=John Denver - The Complete Collection 40 Greatest Hits CD2
DYEAR=1900
DGENRE=Country
TTITLE0=Perhaps Love (duet med Lene Si
TTITLE1=Four Strong Winds
TTITLE2=Late Night Radio
TTITLE3=Seasons Of The Heart
TTITLE4=Johnny B. Goode
TTITLE5=Dreamland Express
TTITLE6=Wild Montana Skies (duet med E
TTITLE7=Shanghai Breezes
TTITLE8=Whispering Jesse
TTITLE9=Autograph
TTITLE10=Claudette
TTITLE11=Windsong
TTITLE12=Some Days Are Diamonds (Some D
TTITLE13=Looking For Space
TTITLE14=The Cowboy And The Lady
TTITLE15=Love Again
TTITLE16=My Sweet Lady
TTITLE17=How Can I Leave You Again
TTITLE18=For You
TTITLE19=It Amazes Me
EXTD=ID3G: 2
EXTT0=
EXTT1=
EXTT2=
EXTT3=
EXTT4=
EXTT5=
EXTT6=
EXTT7=
EXTT8=
EXTT9=
EXTT10=
EXTT11=
EXTT12=
EXTT13=
EXTT14=
EXTT15=
EXTT16=
EXTT17=
EXTT18=
EXTT19=
PLAYORDER=
